<svg id="visual" viewBox="0 0 960 540" width="960" height="540" xmlns="http://www.w3.org/2000/svg" xmlns:xlink="http://www.w3.org/1999/xlink" version="1.1"><rect x="0" y="0" width="960" height="540" fill="#9F2241"></rect><path d="M0 375L137 418L274 379L411 368L549 374L686 420L823 411L960 376L960 541L823 541L686 541L549 541L411 541L274 541L137 541L0 541Z" fill="#9f2241"></path><path d="M0 396L137 437L274 443L411 423L549 448L686 400L823 425L960 424L960 541L823 541L686 541L549 541L411 541L274 541L137 541L0 541Z" fill="#ab433e"></path><path d="M0 466L137 432L274 441L411 474L549 437L686 442L823 466L960 456L960 541L823 541L686 541L549 541L411 541L274 541L137 541L0 541Z" fill="#b36041"></path><path d="M0 464L137 492L274 470L411 468L549 497L686 483L823 462L960 464L960 541L823 541L686 541L549 541L411 541L274 541L137 541L0 541Z" fill="#b87b4b"></path><path d="M0 518L137 499L274 494L411 498L549 500L686 514L823 514L960 508L960 541L823 541L686 541L549 541L411 541L274 541L137 541L0 541Z" fill="#bc955c"></path></svg>